<?xml version="1.0" standalone="no"?>
<!DOCTYPE svg PUBLIC "-//W3C//DTD SVG 20010904//EN"
 "http://www.w3.org/TR/2001/REC-SVG-20010904/DTD/svg10.dtd">
<svg version="1.0" xmlns="http://www.w3.org/2000/svg"
 width="221.000000pt" height="228.000000pt" viewBox="0 0 221.000000 228.000000"
 preserveAspectRatio="xMidYMid meet">

<g transform="translate(0.000000,228.000000) scale(0.100000,-0.100000)"
fill="#000000" stroke="none">
<path d="M358 2029 c-44 -58 -158 -250 -200 -338 -55 -115 -102 -249 -124
-351 -24 -114 -24 -301 0 -389 49 -182 158 -334 312 -438 64 -44 144 -87 150
-81 1 2 -20 51 -49 108 -133 268 -182 562 -145 872 l13 103 6 -145 c9 -203 41
-364 106 -535 38 -100 104 -247 110 -242 5 6 23 103 44 247 26 175 37 533 20
679 -25 212 -92 400 -179 500 l-38 44 -26 -34z"/>
<path d="M2020 1269 c-593 -53 -968 -322 -1087 -779 -20 -74 -26 -128 -29
-245 l-5 -150 39 105 c91 246 196 426 316 546 74 74 170 138 221 149 l30 6
-25 -18 c-47 -33 -152 -138 -196 -195 -111 -143 -214 -417 -214 -568 0 -37 2
-40 23 -35 12 2 53 12 92 20 296 66 575 276 752 565 51 84 77 141 118 265 18
55 58 154 89 219 31 65 56 121 56 122 0 6 -82 2 -180 -7z"/>
<path d="M2186 165 c-10 -22 -24 -67 -31 -100 l-12 -60 30 -3 c16 -2 31 -1 33
1 3 2 3 49 2 103 l-3 99 -19 -40z"/>
</g>
</svg>
